<svg width="100%" height="300" viewBox="0 0 1512 300" fill="none" xmlns="http://www.w3.org/2000/svg">
<g clip-path="url(#clip0_1624_1388)">
<rect width="100%" height="300" fill="#EAFBF3"/>
<path d="M693.439 197.945C693.439 197.945 705.58 186.39 717.131 133C728.682 79.6954 724.635 80.9605 724.635 80.9605L721.768 73.454C721.768 73.454 727.164 43.5964 731.296 39.2105C735.427 34.8247 731.296 54.3924 731.296 54.3924C731.296 54.3924 743.437 48.4883 739.896 98.6727C736.355 148.857 731.38 184.872 726.406 207.223C726.406 207.223 739.221 227.296 740.57 238.936C741.835 250.491 742.257 253.612 735.343 286.084C735.343 286.084 752.374 311.218 749.255 340.57C746.135 369.921 745.376 386.959 712.578 441.444H704.484C704.484 441.444 657.353 527.222 639.225 535.74C621.098 544.259 651.957 488.171 651.957 488.171L660.809 482.014C660.809 482.014 675.902 444.565 675.143 434.444L661.99 430.564C661.99 430.564 608.704 493.906 607.945 497.027C607.186 500.147 607.945 506.305 607.945 506.305C607.945 506.305 584.421 540.717 573.545 544.934C562.753 549.151 610.221 442.878 631.468 415.129C631.468 415.129 597.827 396.574 589.396 383.079C589.396 383.079 657.015 337.449 667.386 312.399C677.841 287.265 682.394 280.686 660.809 261.034L584.758 334.075L571.943 356.089H567.727L561.909 363.427L555.333 359.21C555.333 359.21 556.851 326.4 574.641 324.797C592.431 323.195 625.229 234.803 671.939 211.187C671.939 211.187 666.121 198.788 642.935 202.331C619.749 205.873 625.145 206.97 625.145 206.97C625.145 206.97 629.36 221.308 595.045 238.683L599.682 232.863C599.682 232.863 585.349 239.779 583.494 239.779C581.639 239.779 588.131 235.14 588.131 235.14C588.131 235.14 575.4 237.08 573.039 239.357C570.762 241.635 603.055 217.934 608.704 211.777C614.353 205.62 615.111 202.752 615.111 202.752C615.111 202.752 611.992 194.234 613.088 190.607C613.088 190.607 601.79 172.304 619.496 154.761C637.202 137.218 648.921 147.929 648.921 147.929C648.921 147.929 657.184 147.929 665.362 152.568C673.541 157.207 686.188 164.461 687.79 171.124C689.308 177.787 685.766 183.775 681.888 187.065C678.009 190.438 693.439 196.68 693.439 197.945Z" fill="#0B9885" fill-opacity="0.5"/>
<path d="M777.921 36.9331C777.921 36.9331 787.617 62.9109 787.617 70.1644C787.617 77.418 783.908 76.0685 784.16 80.1169C784.413 84.0811 790.568 132.832 796.808 152.146C803.047 171.461 814.935 195.414 814.935 195.414L826.486 185.378C826.486 185.378 820.415 172.726 824.8 163.195C824.8 163.195 856.249 146.158 863.162 147.76C863.162 147.76 874.46 141.603 888.372 154.677C902.284 167.834 906.415 185.884 891.998 197.945C877.58 210.09 849.251 196.68 839.47 211.102C839.47 211.102 854.9 213.127 877.58 246.358C877.58 246.358 893.515 266.938 895.876 268.287L893.262 271.408L931.878 320.833L946.802 329.605C946.802 329.605 956.076 344.534 953.462 356.426L947.055 360.559L940.141 352.04H937.864L924.711 329.858C924.711 329.858 879.604 289.12 877.833 286.084C877.833 286.084 851.527 273.685 848.492 268.287C848.492 268.287 834.327 276.806 835.086 313.411C835.086 313.411 859.031 348.666 882.217 407.454L877.833 411.84C877.833 411.84 926.229 486.821 935.757 512.546C945.284 538.27 935.757 549.151 935.757 549.151C935.757 549.151 927.747 547.633 918.725 533.716C909.704 519.799 901.188 501.497 901.188 501.497L901.441 494.581C901.441 494.581 831.629 412.43 823.451 390.501C823.451 390.501 845.372 466.494 851.78 477.796L859.79 480.411C859.79 480.411 878.339 531.439 873.702 542.994C873.702 542.994 831.966 500.991 817.802 461.855C803.637 422.72 794.362 422.72 794.362 422.72H788.966C788.966 422.72 749.339 344.702 760.89 323.026C760.89 323.026 757.011 254.202 765.021 228.477C773.031 202.752 776.319 208.656 776.319 208.656L768.057 179.558L776.572 175.678C776.572 175.678 768.562 112.083 769.659 91.419C769.659 91.419 765.78 66.7063 775.813 52.2836C775.813 52.1149 776.066 38.9573 777.921 36.9331Z" fill="#0B9885" fill-opacity="0.5"/>
<path d="M756 9.375V6.25M756 43.75V40.625M774.75 25H771.625M740.375 25H737.25M767.048 13.9521L769.258 11.7417M742.742 38.2583L744.95 36.05M769.258 38.2583L767.05 36.05M744.95 13.95L742.742 11.7417M764.333 25C764.333 27.2101 763.455 29.3298 761.893 30.8926C760.33 32.4554 758.21 33.3333 756 33.3333C753.79 33.3333 751.67 32.4554 750.107 30.8926C748.545 29.3298 747.667 27.2101 747.667 25C747.667 22.7899 748.545 20.6702 750.107 19.1074C751.67 17.5446 753.79 16.6667 756 16.6667C758.21 16.6667 760.33 17.5446 761.893 19.1074C763.455 20.6702 764.333 22.7899 764.333 25Z" stroke="#D7DE27" stroke-opacity="0.5" stroke-width="2.91667" stroke-linecap="round"/>
<path d="M748.8 788.392L718.444 764.676L687.817 740.824L558.26 639.591L527.768 615.74L504.865 597.851L474.374 574L447.27 594.734L422.47 613.707L395.366 634.442L97.7652 861.979L70.6613 882.713L36.1039 909.139L9 929.874L39.4919 953.725L62.3946 971.614L93.022 995.465L222.443 1096.7L252.935 1120.55L283.291 1144.27L309.853 1165L336.957 1144.27L371.514 1117.84L398.618 1097.1L696.219 869.568L723.323 848.833L748.123 829.861L775.227 809.126L748.8 788.392ZM696.896 828.234L669.793 848.969L372.192 1076.37L345.088 1097.1L310.531 1123.53L280.174 1099.82L249.547 1075.96L119.99 974.731L89.4985 950.879L66.5957 932.991L101.153 906.565L128.257 885.83L425.858 658.293L452.962 637.559L477.762 618.586L500.664 636.474L531.156 660.326L660.713 761.559L691.205 785.41L721.561 809.126L696.896 828.234Z" fill="#0B9885" fill-opacity="0.5"/>
<path d="M635.912 780.532L506.356 679.299L475.864 655.447L448.76 676.182L151.16 903.719L124.056 924.453L154.548 948.305L284.104 1049.54L314.596 1073.39L341.7 1052.65L639.3 825.118L666.404 804.383L635.912 780.532ZM311.343 1028.8L181.787 927.706L479.252 700.169L608.808 801.402L311.343 1028.8Z" fill="#D7DE27" fill-opacity="0.1"/>
<path d="M531.698 785.275L504.865 764.269L481.014 745.567L474.238 740.282L447.134 761.017L244.532 916.186L251.308 921.472L275.16 940.173L301.992 961.179L332.62 985.03L359.724 964.296L535.221 830.132L562.325 809.397L531.698 785.275ZM329.096 940.309L302.263 919.303L477.761 785.139L504.594 806.145L329.096 940.309Z" fill="#0B9885" fill-opacity="0.5"/>
<path d="M1282.8 817.392L1252.44 793.676L1221.82 769.824L1092.26 668.591L1061.77 644.74L1038.87 626.851L1008.37 603L981.27 623.734L956.47 642.707L929.366 663.442L631.765 890.979L604.661 911.713L570.104 938.139L543 958.874L573.492 982.725L596.395 1000.61L627.022 1024.47L756.443 1125.7L786.935 1149.55L817.291 1173.27L843.853 1194L870.957 1173.27L905.514 1146.84L932.618 1126.1L1230.22 898.568L1257.32 877.833L1282.12 858.861L1309.23 838.126L1282.8 817.392ZM1230.9 857.234L1203.79 877.969L906.192 1105.37L879.088 1126.1L844.531 1152.53L814.174 1128.82L783.547 1104.96L653.99 1003.73L623.499 979.879L600.596 961.991L635.153 935.565L662.257 914.83L959.858 687.293L986.962 666.559L1011.76 647.586L1034.66 665.474L1065.16 689.326L1194.71 790.559L1225.2 814.41L1255.56 838.126L1230.9 857.234Z" fill="#0B9885" fill-opacity="0.5"/>
<path d="M1169.91 809.532L1040.36 708.299L1009.86 684.447L982.76 705.182L685.16 932.719L658.056 953.453L688.548 977.305L818.104 1078.54L848.596 1102.39L875.7 1081.65L1173.3 854.118L1200.4 833.383L1169.91 809.532ZM845.343 1057.8L715.787 956.706L1013.25 729.169L1142.81 830.402L845.343 1057.8Z" fill="#D7DE27" fill-opacity="0.1"/>
<path d="M108.4 129.257L89.9 147.22L73.1 163.713H73L54.6 181.677L33.7 167.6L9.70001 151.632L6.5 149.426L-17.6 133.248L-35.7 121.063L-35.8 121.168L-59.9 104.99L-116.7 66.8566L-226.6 174.113L-249.8 158.566L-250.8 157.935L-140.8 50.7838L-122.3 32.7152L-98.2 48.8929L-41.4 87.0263V86.9212L-17.3 103.099L0.900024 115.285L25 131.358L52.2 149.636L69 133.248L45.1 117.176L21 100.998L-81.3 32.4L-105.4 16.2222L-123.5 4.14141L-140.4 20.6344L-158.9 38.598L-268.9 145.75L-270.9 144.384L-289.8 131.778L-293 129.572L-183 22.4202L-164.5 4.45658L-147.6 -12.0364L-129.2 -30L-105.1 -13.8222L-86.9 -1.74142L-62.8 14.4364L39.4 82.9293L63.5 99.1071L87.5 115.18L108.4 129.257Z" fill="#0B9885" fill-opacity="0.5"/>
<path d="M108.4 247.257L89.9 265.22L73.1 281.713H73L54.6 299.677L33.7 285.6L9.70001 269.632L6.5 267.426L-17.6 251.248L-35.7 239.063L-35.8 239.168L-59.9 222.99L-116.7 184.857L-226.6 292.113L-249.8 276.566L-250.8 275.935L-140.8 168.784L-122.3 150.715L-98.2 166.893L-41.4 205.026V204.921L-17.3 221.099L0.900024 233.285L25 249.358L52.2 267.636L69 251.248L45.1 235.176L21 218.998L-81.3 150.4L-105.4 134.222L-123.5 122.141L-140.4 138.634L-158.9 156.598L-268.9 263.75L-270.9 262.384L-289.8 249.778L-293 247.572L-183 140.42L-164.5 122.457L-147.6 105.964L-129.2 88L-105.1 104.178L-86.9 116.259L-62.8 132.436L39.4 200.929L63.5 217.107L87.5 233.18L108.4 247.257Z" fill="#0B9885" fill-opacity="0.5"/>
</g>
<defs>
<clipPath id="clip0_1624_1388">
<rect width="100%" height="300" fill="white"/>
</clipPath>
</defs>
</svg>
