<svg width="1512" height="755" viewBox="0 0 1512 755" fill="none" xmlns="http://www.w3.org/2000/svg">
<g clip-path="url(#clip0_1619_1378)">
<rect width="1512" height="755" fill="#018C79"/>
<path d="M705.439 238.945C705.439 238.945 717.58 227.39 729.131 174.001C740.682 120.696 736.635 121.961 736.635 121.961L733.768 114.454C733.768 114.454 739.164 84.5965 743.296 80.2107C747.427 75.8248 743.296 95.3925 743.296 95.3925C743.296 95.3925 755.437 89.4884 751.896 139.673C748.355 189.857 743.38 225.872 738.406 248.223C738.406 248.223 751.221 268.297 752.57 279.936C753.835 291.491 754.257 294.612 747.343 327.084C747.343 327.084 764.374 352.218 761.255 381.57C758.135 410.921 757.376 427.959 724.578 482.445H716.484C716.484 482.445 669.353 568.222 651.225 576.74C633.098 585.259 663.957 529.171 663.957 529.171L672.809 523.014C672.809 523.014 687.902 485.565 687.143 475.444L673.99 471.564C673.99 471.564 620.704 534.906 619.945 538.027C619.186 541.148 619.945 547.305 619.945 547.305C619.945 547.305 596.421 581.717 585.545 585.934C574.753 590.151 622.221 483.878 643.468 456.129C643.468 456.129 609.827 437.574 601.396 424.079C601.396 424.079 669.015 378.449 679.386 353.399C689.841 328.265 694.394 321.686 672.809 302.034L596.758 375.075L583.943 397.089H579.727L573.909 404.427L567.333 400.21C567.333 400.21 568.851 367.4 586.641 365.798C604.431 364.195 637.229 275.803 683.939 252.187C683.939 252.187 678.121 239.788 654.935 243.331C631.749 246.873 637.145 247.97 637.145 247.97C637.145 247.97 641.36 262.308 607.045 279.683L611.682 273.863C611.682 273.863 597.349 280.779 595.494 280.779C593.639 280.779 600.131 276.14 600.131 276.14C600.131 276.14 587.4 278.08 585.039 280.358C582.762 282.635 615.055 258.934 620.704 252.777C626.353 246.62 627.111 243.753 627.111 243.753C627.111 243.753 623.992 235.234 625.088 231.607C625.088 231.607 613.79 213.305 631.496 195.761C649.202 178.218 660.921 188.929 660.921 188.929C660.921 188.929 669.184 188.929 677.362 193.568C685.541 198.207 698.188 205.461 699.79 212.124C701.308 218.787 697.766 224.775 693.888 228.065C690.009 231.438 705.439 237.68 705.439 238.945Z" fill="#0B9885"/>
<path d="M789.921 77.9333C789.921 77.9333 799.617 103.911 799.617 111.165C799.617 118.418 795.908 117.069 796.16 121.117C796.413 125.081 802.568 173.832 808.808 193.146C815.047 212.461 826.935 236.415 826.935 236.415L838.486 226.378C838.486 226.378 832.415 213.726 836.8 204.195C836.8 204.195 868.249 187.158 875.162 188.761C875.162 188.761 886.46 182.604 900.372 195.677C914.284 208.834 918.415 226.884 903.998 238.945C889.58 251.09 861.251 237.68 851.47 252.103C851.47 252.103 866.9 254.127 889.58 287.358C889.58 287.358 905.515 307.938 907.876 309.287L905.262 312.408L943.878 361.833L958.802 370.605C958.802 370.605 968.076 385.534 965.462 397.426L959.055 401.559L952.141 393.04H949.864L936.711 370.858C936.711 370.858 891.604 330.12 889.833 327.084C889.833 327.084 863.527 314.685 860.492 309.287C860.492 309.287 846.327 317.806 847.086 354.411C847.086 354.411 871.031 389.667 894.217 448.454L889.833 452.84C889.833 452.84 938.229 527.821 947.757 553.546C957.284 579.271 947.757 590.151 947.757 590.151C947.757 590.151 939.747 588.633 930.725 574.716C921.704 560.8 913.188 542.497 913.188 542.497L913.441 535.581C913.441 535.581 843.629 453.43 835.451 431.501C835.451 431.501 857.372 507.494 863.78 518.796L871.79 521.411C871.79 521.411 890.339 572.439 885.702 583.994C885.702 583.994 843.966 541.991 829.802 502.856C815.637 463.72 806.362 463.72 806.362 463.72H800.966C800.966 463.72 761.339 385.703 772.89 364.026C772.89 364.026 769.011 295.202 777.021 269.477C785.031 243.753 788.319 249.657 788.319 249.657L780.057 220.558L788.572 216.678C788.572 216.678 780.562 153.083 781.659 132.419C781.659 132.419 777.78 107.707 787.813 93.2839C787.813 93.1152 788.066 79.9576 789.921 77.9333Z" fill="#0B9885"/>
<path d="M802.8 756.392L772.444 732.676L741.817 708.824L612.26 607.591L581.768 583.74L558.865 565.851L528.374 542L501.27 562.734L476.47 581.707L449.366 602.442L151.765 829.979L124.661 850.713L90.1039 877.139L63 897.874L93.4919 921.725L116.395 939.614L147.022 963.465L276.443 1064.7L306.935 1088.55L337.291 1112.27L363.853 1133L390.957 1112.27L425.514 1085.84L452.618 1065.1L750.219 837.568L777.323 816.833L802.123 797.861L829.227 777.126L802.8 756.392ZM750.896 796.234L723.793 816.969L426.192 1044.37L399.088 1065.1L364.531 1091.53L334.174 1067.82L303.547 1043.96L173.99 942.731L143.499 918.879L120.596 900.991L155.153 874.565L182.257 853.83L479.858 626.293L506.962 605.559L531.762 586.586L554.664 604.474L585.156 628.326L714.713 729.559L745.205 753.41L775.561 777.126L750.896 796.234Z" fill="#27A694"/>
<path d="M689.912 748.531L560.356 647.298L529.864 623.447L502.76 644.181L205.16 871.719L178.056 892.453L208.548 916.304L338.104 1017.54L368.596 1041.39L395.7 1020.65L693.3 793.117L720.404 772.383L689.912 748.531ZM365.343 996.803L235.787 895.705L533.252 668.168L662.808 769.401L365.343 996.803Z" fill="#D7DE27" fill-opacity="0.4"/>
<path d="M585.698 753.275L558.865 732.269L535.014 713.567L528.238 708.282L501.134 729.017L298.532 884.186L305.308 889.472L329.16 908.173L355.992 929.179L386.62 953.03L413.724 932.296L589.221 798.132L616.325 777.397L585.698 753.275ZM383.096 908.309L356.263 887.303L531.761 753.139L558.594 774.145L383.096 908.309Z" fill="#27A694"/>
<path d="M1336.8 785.392L1306.44 761.676L1275.82 737.824L1146.26 636.591L1115.77 612.74L1092.87 594.851L1062.37 571L1035.27 591.734L1010.47 610.707L983.366 631.442L685.765 858.979L658.661 879.713L624.104 906.139L597 926.874L627.492 950.725L650.395 968.614L681.022 992.465L810.443 1093.7L840.935 1117.55L871.291 1141.27L897.853 1162L924.957 1141.27L959.514 1114.84L986.618 1094.1L1284.22 866.568L1311.32 845.833L1336.12 826.861L1363.23 806.126L1336.8 785.392ZM1284.9 825.234L1257.79 845.969L960.192 1073.37L933.088 1094.1L898.531 1120.53L868.174 1096.82L837.547 1072.96L707.99 971.731L677.499 947.879L654.596 929.991L689.153 903.565L716.257 882.83L1013.86 655.293L1040.96 634.559L1065.76 615.586L1088.66 633.474L1119.16 657.326L1248.71 758.559L1279.2 782.41L1309.56 806.126L1284.9 825.234Z" fill="#27A694"/>
<path d="M1223.91 777.531L1094.36 676.298L1063.86 652.447L1036.76 673.181L739.16 900.719L712.056 921.453L742.548 945.304L872.104 1046.54L902.596 1070.39L929.7 1049.65L1227.3 822.117L1254.4 801.383L1223.91 777.531ZM899.343 1025.8L769.787 924.705L1067.25 697.168L1196.81 798.401L899.343 1025.8Z" fill="#D7DE27" fill-opacity="0.4"/>
<path d="M1119.7 782.275L1092.86 761.269L1069.01 742.567L1062.24 737.282L1035.13 758.017L832.532 913.186L839.308 918.472L863.16 937.173L889.992 958.179L920.62 982.03L947.724 961.296L1123.22 827.132L1150.33 806.397L1119.7 782.275ZM917.096 937.309L890.263 916.303L1065.76 782.139L1092.59 803.145L917.096 937.309Z" fill="#27A694"/>
</g>
<defs>
<clipPath id="clip0_1619_1378">
<rect width="1512" height="755" fill="white"/>
</clipPath>
</defs>
</svg>
