<svg width="1512" height="755" viewBox="0 0 1512 755" fill="none" xmlns="http://www.w3.org/2000/svg">
<g clip-path="url(#clip0_1619_1378)">
<rect width="1512" height="755" fill="white"/>
<path d="M693.439 403.945C693.439 403.945 705.58 392.39 717.131 339C728.682 285.695 724.635 286.961 724.635 286.961L721.768 279.454C721.768 279.454 727.164 249.596 731.296 245.211C735.427 240.825 731.296 260.392 731.296 260.392C731.296 260.392 743.437 254.488 739.896 304.673C736.355 354.857 731.38 390.872 726.406 413.223C726.406 413.223 739.221 433.296 740.57 444.936C741.835 456.491 742.257 459.612 735.343 492.084C735.343 492.084 752.374 517.218 749.255 546.57C746.135 575.921 745.376 592.959 712.578 647.444H704.484C704.484 647.444 657.353 733.222 639.225 741.74C621.098 750.259 651.957 694.171 651.957 694.171L660.809 688.014C660.809 688.014 675.902 650.565 675.143 640.444L661.99 636.564C661.99 636.564 608.704 699.906 607.945 703.027C607.186 706.147 607.945 712.305 607.945 712.305C607.945 712.305 584.421 746.717 573.545 750.934C562.753 755.151 610.221 648.878 631.468 621.129C631.468 621.129 597.827 602.574 589.396 589.079C589.396 589.079 657.015 543.449 667.386 518.399C677.841 493.265 682.394 486.686 660.809 467.034L584.758 540.075L571.943 562.089H567.727L561.909 569.427L555.333 565.21C555.333 565.21 556.851 532.4 574.641 530.797C592.431 529.195 625.229 440.803 671.939 417.187C671.939 417.187 666.121 404.788 642.935 408.331C619.749 411.873 625.145 412.97 625.145 412.97C625.145 412.97 629.36 427.308 595.045 444.683L599.682 438.863C599.682 438.863 585.349 445.779 583.494 445.779C581.639 445.779 588.131 441.14 588.131 441.14C588.131 441.14 575.4 443.08 573.039 445.357C570.762 447.635 603.055 423.934 608.704 417.777C614.353 411.62 615.111 408.752 615.111 408.752C615.111 408.752 611.992 400.234 613.088 396.607C613.088 396.607 601.79 378.304 619.496 360.761C637.202 343.218 648.921 353.929 648.921 353.929C648.921 353.929 657.184 353.929 665.362 358.568C673.541 363.207 686.188 370.461 687.79 377.124C689.308 383.787 685.766 389.775 681.888 393.065C678.009 396.438 693.439 402.68 693.439 403.945Z" fill="#EAFBF3"/>
<path d="M777.921 242.933C777.921 242.933 787.617 268.911 787.617 276.165C787.617 283.418 783.908 282.069 784.16 286.117C784.413 290.081 790.568 338.832 796.808 358.146C803.047 377.461 814.935 401.415 814.935 401.415L826.486 391.378C826.486 391.378 820.415 378.726 824.8 369.195C824.8 369.195 856.249 352.158 863.162 353.761C863.162 353.761 874.46 347.604 888.372 360.677C902.284 373.834 906.415 391.884 891.998 403.945C877.58 416.09 849.251 402.68 839.47 417.103C839.47 417.103 854.9 419.127 877.58 452.358C877.58 452.358 893.515 472.938 895.876 474.287L893.262 477.408L931.878 526.833L946.802 535.605C946.802 535.605 956.076 550.534 953.462 562.426L947.055 566.559L940.141 558.04H937.864L924.711 535.858C924.711 535.858 879.604 495.12 877.833 492.084C877.833 492.084 851.527 479.685 848.492 474.287C848.492 474.287 834.327 482.806 835.086 519.411C835.086 519.411 859.031 554.667 882.217 613.454L877.833 617.84C877.833 617.84 926.229 692.821 935.757 718.546C945.284 744.271 935.757 755.151 935.757 755.151C935.757 755.151 927.747 753.633 918.725 739.716C909.704 725.799 901.188 707.497 901.188 707.497L901.441 700.581C901.441 700.581 831.629 618.43 823.451 596.501C823.451 596.501 845.372 672.494 851.78 683.796L859.79 686.411C859.79 686.411 878.339 737.439 873.702 748.994C873.702 748.994 831.966 706.991 817.802 667.856C803.637 628.72 794.362 628.72 794.362 628.72H788.966C788.966 628.72 749.339 550.703 760.89 529.026C760.89 529.026 757.011 460.202 765.021 434.477C773.031 408.753 776.319 414.657 776.319 414.657L768.057 385.558L776.572 381.678C776.572 381.678 768.562 318.083 769.659 297.419C769.659 297.419 765.78 272.707 775.813 258.284C775.813 258.115 776.066 244.958 777.921 242.933Z" fill="#EAFBF3"/>
<path d="M159.4 163.257L140.9 181.22L124.1 197.713H124L105.6 215.677L84.7 201.6L60.7 185.632L57.5 183.426L33.4 167.248L15.3 155.063L15.2 155.168L-8.90001 138.99L-65.7 100.857L-175.6 208.113L-198.8 192.566L-199.8 191.935L-89.8 84.7838L-71.3 66.7152L-47.2 82.8929L9.59999 121.026V120.921L33.7 137.099L51.9 149.285L76 165.358L103.2 183.636L120 167.248L96.1 151.176L72 134.998L-30.3 66.4L-54.4 50.2222L-72.5 38.1414L-89.4 54.6344L-107.9 72.598L-217.9 179.75L-219.9 178.384L-238.8 165.778L-242 163.572L-132 56.4202L-113.5 38.4566L-96.6 21.9636L-78.2 4L-54.1 20.1778L-35.9 32.2586L-11.8 48.4364L90.4 116.929L114.5 133.107L138.5 149.18L159.4 163.257Z" fill="#EAFBF3"/>
<path d="M159.4 357.257L140.9 375.22L124.1 391.713H124L105.6 409.677L84.7 395.6L60.7 379.632L57.5 377.426L33.4 361.248L15.3 349.063L15.2 349.168L-8.90001 332.99L-65.7 294.857L-175.6 402.113L-198.8 386.566L-199.8 385.935L-89.8 278.784L-71.3 260.715L-47.2 276.893L9.59999 315.026V314.921L33.7 331.099L51.9 343.285L76 359.358L103.2 377.636L120 361.248L96.1 345.176L72 328.998L-30.3 260.4L-54.4 244.222L-72.5 232.141L-89.4 248.634L-107.9 266.598L-217.9 373.75L-219.9 372.384L-238.8 359.778L-242 357.572L-132 250.42L-113.5 232.457L-96.6 215.964L-78.2 198L-54.1 214.178L-35.9 226.259L-11.8 242.436L90.4 310.929L114.5 327.107L138.5 343.18L159.4 357.257Z" fill="#EAFBF3"/>
<path d="M756 214.375V211.25M756 248.75V245.625M774.75 230H771.625M740.375 230H737.25M767.048 218.952L769.258 216.742M742.742 243.258L744.95 241.05M769.258 243.258L767.05 241.05M744.95 218.95L742.742 216.742M764.333 230C764.333 232.21 763.455 234.33 761.893 235.893C760.33 237.455 758.21 238.333 756 238.333C753.79 238.333 751.67 237.455 750.107 235.893C748.545 234.33 747.667 232.21 747.667 230C747.667 227.79 748.545 225.67 750.107 224.107C751.67 222.545 753.79 221.667 756 221.667C758.21 221.667 760.33 222.545 761.893 224.107C763.455 225.67 764.333 227.79 764.333 230Z" stroke="#D7DE27" stroke-opacity="0.5" stroke-width="2.91667" stroke-linecap="round"/>
<path d="M2005.61 499.828L1978.32 472.646L1950.77 445.296L1834.28 329.267L1806.86 301.933L1786.27 281.429L1758.85 254.095L1729.46 271.432L1702.57 287.296L1673.17 304.634L1350.45 494.868L1321.06 512.205L1283.58 534.299L1254.19 551.636L1281.6 578.97L1302.2 599.474L1329.74 626.824L1446.1 742.837L1473.51 770.17L1500.81 797.353L1524.7 821.121L1554.09 803.784L1591.56 781.689L1620.96 764.352L1943.68 574.118L1973.07 556.781L1999.97 540.917L2029.36 523.58L2005.61 499.828ZM1949.31 533.164L1919.91 550.501L1597.21 740.601L1567.81 757.937L1530.34 780.032L1503.04 752.849L1475.49 725.5L1359 609.471L1331.59 582.137L1310.99 561.633L1348.47 539.538L1377.86 522.201L1700.59 331.967L1729.98 314.63L1756.87 298.766L1777.47 319.27L1804.88 346.604L1921.37 462.633L1948.79 489.966L1976.08 517.149L1949.31 533.164Z" fill="#EAFBF3"/>
<path d="M1894.48 478.497L1777.99 362.468L1750.57 335.134L1721.18 352.471L1398.46 542.705L1369.06 560.042L1396.48 587.376L1512.97 703.405L1540.38 730.738L1569.78 713.401L1892.5 523.167L1921.89 505.83L1894.48 478.497ZM1542.5 686.084L1425.99 570.19L1748.58 379.939L1865.07 495.968L1542.5 686.084Z" fill="#D7DE27" fill-opacity="0.5"/>
<path d="M1790.45 470.717L1766.32 446.647L1744.89 425.222L1738.79 419.163L1709.4 436.5L1489.66 566.273L1495.76 572.332L1517.19 593.757L1541.32 617.827L1568.87 645.177L1598.26 627.84L1788.57 515.673L1817.96 498.336L1790.45 470.717ZM1570.73 600.355L1546.6 576.285L1736.91 464.119L1761.04 488.189L1570.73 600.355Z" fill="#EAFBF3"/>
</g>
<defs>
<clipPath id="clip0_1619_1378">
<rect width="1512" height="755" fill="white"/>
</clipPath>
</defs>
</svg>
