<svg width="1512" height="755" viewBox="0 0 1512 755" fill="none" xmlns="http://www.w3.org/2000/svg">
<g clip-path="url(#clip0_1623_236)">
<rect width="1512" height="755" fill="white"/>
<path d="M159.4 163.257L140.9 181.22L124.1 197.713H124L105.6 215.677L84.7 201.6L60.7 185.632L57.5 183.426L33.4 167.248L15.3 155.063L15.2 155.168L-8.90001 138.99L-65.7 100.857L-175.6 208.113L-198.8 192.566L-199.8 191.935L-89.8 84.7838L-71.3 66.7152L-47.2 82.8929L9.59999 121.026V120.921L33.7 137.099L51.9 149.285L76 165.358L103.2 183.636L120 167.248L96.1 151.176L72 134.998L-30.3 66.4L-54.4 50.2222L-72.5 38.1414L-89.4 54.6344L-107.9 72.598L-217.9 179.75L-219.9 178.384L-238.8 165.778L-242 163.572L-132 56.4202L-113.5 38.4566L-96.6 21.9636L-78.2 4L-54.1 20.1778L-35.9 32.2586L-11.8 48.4364L90.4 116.929L114.5 133.107L138.5 149.18L159.4 163.257Z" fill="#EAFBF3"/>
<path d="M159.4 357.257L140.9 375.22L124.1 391.713H124L105.6 409.677L84.7 395.6L60.7 379.632L57.5 377.426L33.4 361.248L15.3 349.063L15.2 349.168L-8.90001 332.99L-65.7 294.857L-175.6 402.113L-198.8 386.566L-199.8 385.935L-89.8 278.784L-71.3 260.715L-47.2 276.893L9.59999 315.026V314.921L33.7 331.099L51.9 343.285L76 359.358L103.2 377.636L120 361.248L96.1 345.176L72 328.998L-30.3 260.4L-54.4 244.222L-72.5 232.141L-89.4 248.634L-107.9 266.598L-217.9 373.75L-219.9 372.384L-238.8 359.778L-242 357.572L-132 250.42L-113.5 232.457L-96.6 215.964L-78.2 198L-54.1 214.178L-35.9 226.259L-11.8 242.436L90.4 310.929L114.5 327.107L138.5 343.18L159.4 357.257Z" fill="#EAFBF3"/>
<path d="M1495.8 518.392L1465.44 494.676L1434.82 470.824L1305.26 369.591L1274.77 345.74L1251.87 327.851L1221.37 304L1194.27 324.734L1169.47 343.707L1142.37 364.442L844.765 591.979L817.661 612.713L783.104 639.139L756 659.874L786.492 683.725L809.395 701.614L840.022 725.465L969.443 826.698L999.935 850.55L1030.29 874.266L1056.85 895L1083.96 874.266L1118.51 847.839L1145.62 827.105L1443.22 599.568L1470.32 578.833L1495.12 559.861L1522.23 539.126L1495.8 518.392ZM1443.9 558.234L1416.79 578.969L1119.19 806.37L1092.09 827.105L1057.53 853.531L1027.17 829.815L996.547 805.964L866.99 704.731L836.499 680.879L813.596 662.991L848.153 636.565L875.257 615.83L1172.86 388.293L1199.96 367.559L1224.76 348.586L1247.66 366.474L1278.16 390.326L1407.71 491.559L1438.2 515.41L1468.56 539.126L1443.9 558.234Z" fill="#EAFBF3"/>
<path d="M1382.91 510.532L1253.36 409.299L1222.86 385.447L1195.76 406.182L898.16 633.719L871.056 654.453L901.548 678.305L1031.1 779.538L1061.6 803.389L1088.7 782.655L1386.3 555.118L1413.4 534.383L1382.91 510.532ZM1058.34 758.803L928.787 657.706L1226.25 430.169L1355.81 531.402L1058.34 758.803Z" fill="#D7DE27" fill-opacity="0.1"/>
<path d="M1278.7 515.275L1251.86 494.269L1228.01 475.567L1221.24 470.282L1194.13 491.017L991.532 646.186L998.308 651.472L1022.16 670.173L1048.99 691.179L1079.62 715.03L1106.72 694.296L1282.22 560.132L1309.33 539.397L1278.7 515.275ZM1076.1 670.309L1049.26 649.303L1224.76 515.139L1251.59 536.145L1076.1 670.309Z" fill="#EAFBF3"/>
<path d="M2029.8 547.392L1999.44 523.676L1968.82 499.824L1839.26 398.591L1808.77 374.74L1785.87 356.851L1755.37 333L1728.27 353.734L1703.47 372.707L1676.37 393.442L1378.77 620.979L1351.66 641.713L1317.1 668.139L1290 688.874L1320.49 712.725L1343.39 730.614L1374.02 754.465L1503.44 855.698L1533.93 879.55L1564.29 903.266L1590.85 924L1617.96 903.266L1652.51 876.839L1679.62 856.105L1977.22 628.568L2004.32 607.833L2029.12 588.861L2056.23 568.126L2029.8 547.392ZM1977.9 587.234L1950.79 607.969L1653.19 835.37L1626.09 856.105L1591.53 882.531L1561.17 858.815L1530.55 834.964L1400.99 733.731L1370.5 709.879L1347.6 691.991L1382.15 665.565L1409.26 644.83L1706.86 417.293L1733.96 396.559L1758.76 377.586L1781.66 395.474L1812.16 419.326L1941.71 520.559L1972.2 544.41L2002.56 568.126L1977.9 587.234Z" fill="#EAFBF3"/>
<path d="M1916.91 539.532L1787.36 438.299L1756.86 414.447L1729.76 435.182L1432.16 662.719L1405.06 683.453L1435.55 707.305L1565.1 808.538L1595.6 832.389L1622.7 811.655L1920.3 584.118L1947.4 563.383L1916.91 539.532ZM1592.34 787.803L1462.79 686.706L1760.25 459.169L1889.81 560.402L1592.34 787.803Z" fill="#D7DE27" fill-opacity="0.1"/>
</g>
<defs>
<clipPath id="clip0_1623_236">
<rect width="1512" height="755" fill="white"/>
</clipPath>
</defs>
</svg>
