<svg width="24" height="24" viewBox="0 0 24 24" fill="none" xmlns="http://www.w3.org/2000/svg">
<path fill-rule="evenodd" clip-rule="evenodd" d="M13.717 16.2913C14.921 16.2913 15.901 17.2643 15.901 18.4603V21.5363C15.901 21.7933 16.107 21.9993 16.371 22.0053H18.277C19.779 22.0053 21 20.7993 21 19.3173V10.5933C20.993 10.0833 20.75 9.60325 20.333 9.28425L13.74 4.02625C12.855 3.32525 11.617 3.32525 10.729 4.02825L4.181 9.28225C3.748 9.61125 3.505 10.0913 3.5 10.6103V19.3173C3.5 20.7993 4.721 22.0053 6.223 22.0053H8.147C8.418 22.0053 8.638 21.7903 8.638 21.5263C8.638 21.4683 8.645 21.4103 8.657 21.3553V18.4603C8.657 17.2713 9.631 16.2993 10.826 16.2913H13.717ZM18.277 23.5053H16.353C15.251 23.4793 14.401 22.6143 14.401 21.5363V18.4603C14.401 18.0913 14.094 17.7913 13.717 17.7913H10.831C10.462 17.7933 10.157 18.0943 10.157 18.4603V21.5263C10.157 21.6013 10.147 21.6733 10.126 21.7413C10.018 22.7313 9.172 23.5053 8.147 23.5053H6.223C3.894 23.5053 2 21.6263 2 19.3173V10.6033C2.01 9.60925 2.468 8.69925 3.259 8.10025L9.794 2.85525C11.233 1.71525 13.238 1.71525 14.674 2.85325L21.256 8.10325C22.029 8.69225 22.487 9.60025 22.5 10.5823V19.3173C22.5 21.6263 20.606 23.5053 18.277 23.5053Z" fill="#4A4754"/>
</svg>
