<svg width="24" height="24" viewBox="0 0 24 24" fill="none" xmlns="http://www.w3.org/2000/svg">
<path d="M18 8C18 8.53043 17.7893 9.03914 17.4142 9.41421C17.0391 9.78929 16.5304 10 16 10C15.4696 10 14.9609 9.78929 14.5858 9.41421C14.2107 9.03914 14 8.53043 14 8C14 7.46957 14.2107 6.96086 14.5858 6.58579C14.9609 6.21071 15.4696 6 16 6C16.5304 6 17.0391 6.21071 17.4142 6.58579C17.7893 6.96086 18 7.46957 18 8Z" fill="#797979"/>
<path fill-rule="evenodd" clip-rule="evenodd" d="M11.943 1.25H12.057C14.366 1.25 16.175 1.25 17.587 1.44C19.031 1.634 20.171 2.04 21.066 2.934C21.961 3.829 22.366 4.969 22.56 6.414C22.75 7.825 22.75 9.634 22.75 11.943V12.031C22.75 13.94 22.75 15.502 22.646 16.774C22.542 18.054 22.329 19.121 21.851 20.009C21.641 20.4 21.381 20.751 21.066 21.066C20.171 21.961 19.031 22.366 17.586 22.56C16.175 22.75 14.366 22.75 12.057 22.75H11.943C9.634 22.75 7.825 22.75 6.413 22.56C4.969 22.366 3.829 21.96 2.934 21.066C2.141 20.273 1.731 19.286 1.514 18.06C1.299 16.857 1.26 15.36 1.252 13.502C1.25 13.029 1.25 12.529 1.25 12.001V11.943C1.25 9.634 1.25 7.825 1.44 6.413C1.634 4.969 2.04 3.829 2.934 2.934C3.829 2.039 4.969 1.634 6.414 1.44C7.825 1.25 9.634 1.25 11.943 1.25ZM6.613 2.926C5.335 3.098 4.564 3.426 3.995 3.995C3.425 4.565 3.098 5.335 2.926 6.614C2.752 7.914 2.75 9.622 2.75 12C2.75 12.529 2.75 13.026 2.752 13.495C2.76 15.369 2.802 16.741 2.99 17.798C3.174 18.833 3.488 19.498 3.995 20.005C4.565 20.575 5.335 20.902 6.614 21.074C7.914 21.248 9.622 21.25 12 21.25C14.378 21.25 16.086 21.248 17.386 21.074C18.665 20.902 19.436 20.574 20.006 20.005C20.216 19.795 20.387 19.563 20.53 19.298C20.862 18.682 21.053 17.858 21.151 16.653C21.249 15.448 21.25 13.946 21.25 12C21.25 9.622 21.248 7.914 21.074 6.614C20.902 5.335 20.574 4.564 20.005 3.994C19.435 3.425 18.665 3.098 17.386 2.926C16.086 2.752 14.378 2.75 12 2.75C9.622 2.75 7.913 2.752 6.613 2.926Z" fill="#797979"/>
<path opacity="0.4" d="M20.607 19.146L17.777 16.599C17.2723 16.1446 16.6283 15.8749 15.9503 15.834C15.2724 15.7932 14.6007 15.9835 14.045 16.374L13.746 16.584C13.3608 16.8547 12.8925 16.9808 12.4235 16.9402C11.9546 16.8996 11.5149 16.6948 11.182 16.362L6.892 12.072C6.47936 11.6597 5.9255 11.4196 5.34252 11.4003C4.75955 11.381 4.19101 11.5839 3.752 11.968L2.75 12.844L2.752 13.494C2.76 15.369 2.802 16.741 2.99 17.798C3.175 18.833 3.488 19.498 3.995 20.005C4.565 20.575 5.335 20.902 6.614 21.074C7.914 21.248 9.622 21.25 12 21.25C14.378 21.25 16.087 21.248 17.387 21.074C18.665 20.902 19.436 20.574 20.005 20.005C20.2546 19.7563 20.4584 19.4655 20.607 19.146Z" fill="#797979"/>
</svg>
