<svg width="1512" height="755" viewBox="0 0 1512 755" fill="none" xmlns="http://www.w3.org/2000/svg">
<g clip-path="url(#clip0_1696_1378)">
<rect width="1512" height="755" fill="#018C79"/>
<path d="M802.8 756.392L772.444 732.676L741.817 708.824L612.26 607.591L581.768 583.74L558.865 565.851L528.374 542L501.27 562.734L476.47 581.707L449.366 602.442L151.765 829.979L124.661 850.713L90.1039 877.139L63 897.874L93.4919 921.725L116.395 939.614L147.022 963.465L276.443 1064.7L306.935 1088.55L337.291 1112.27L363.853 1133L390.957 1112.27L425.514 1085.84L452.618 1065.1L750.219 837.568L777.323 816.833L802.123 797.861L829.227 777.126L802.8 756.392ZM750.896 796.234L723.793 816.969L426.192 1044.37L399.088 1065.1L364.531 1091.53L334.174 1067.82L303.547 1043.96L173.99 942.731L143.499 918.879L120.596 900.991L155.153 874.565L182.257 853.83L479.858 626.293L506.962 605.559L531.762 586.586L554.664 604.474L585.156 628.326L714.713 729.559L745.205 753.41L775.561 777.126L750.896 796.234Z" fill="#27A694"/>
<path d="M689.912 748.531L560.356 647.298L529.864 623.447L502.76 644.181L205.16 871.719L178.056 892.453L208.548 916.304L338.104 1017.54L368.596 1041.39L395.7 1020.65L693.3 793.117L720.404 772.383L689.912 748.531ZM365.343 996.803L235.787 895.705L533.252 668.168L662.808 769.401L365.343 996.803Z" fill="#D7DE27" fill-opacity="0.4"/>
<path d="M585.698 753.275L558.865 732.269L535.014 713.567L528.238 708.282L501.134 729.017L298.532 884.186L305.308 889.472L329.16 908.173L355.992 929.179L386.62 953.03L413.724 932.296L589.221 798.132L616.325 777.397L585.698 753.275ZM383.096 908.309L356.263 887.303L531.761 753.139L558.594 774.145L383.096 908.309Z" fill="#27A694"/>
<path d="M1336.8 785.392L1306.44 761.676L1275.82 737.824L1146.26 636.591L1115.77 612.74L1092.87 594.851L1062.37 571L1035.27 591.734L1010.47 610.707L983.366 631.442L685.765 858.979L658.661 879.713L624.104 906.139L597 926.874L627.492 950.725L650.395 968.614L681.022 992.465L810.443 1093.7L840.935 1117.55L871.291 1141.27L897.853 1162L924.957 1141.27L959.514 1114.84L986.618 1094.1L1284.22 866.568L1311.32 845.833L1336.12 826.861L1363.23 806.126L1336.8 785.392ZM1284.9 825.234L1257.79 845.969L960.192 1073.37L933.088 1094.1L898.531 1120.53L868.174 1096.82L837.547 1072.96L707.99 971.731L677.499 947.879L654.596 929.991L689.153 903.565L716.257 882.83L1013.86 655.293L1040.96 634.559L1065.76 615.586L1088.66 633.474L1119.16 657.326L1248.71 758.559L1279.2 782.41L1309.56 806.126L1284.9 825.234Z" fill="#27A694"/>
<path d="M1223.91 777.531L1094.36 676.298L1063.86 652.447L1036.76 673.181L739.16 900.719L712.056 921.453L742.548 945.304L872.104 1046.54L902.596 1070.39L929.7 1049.65L1227.3 822.117L1254.4 801.383L1223.91 777.531ZM899.343 1025.8L769.787 924.705L1067.25 697.168L1196.81 798.401L899.343 1025.8Z" fill="#D7DE27" fill-opacity="0.4"/>
<path d="M1119.7 782.275L1092.86 761.269L1069.01 742.567L1062.24 737.282L1035.13 758.017L832.532 913.186L839.308 918.472L863.16 937.173L889.992 958.179L920.62 982.03L947.724 961.296L1123.22 827.132L1150.33 806.397L1119.7 782.275ZM917.096 937.309L890.263 916.303L1065.76 782.139L1092.59 803.145L917.096 937.309Z" fill="#27A694"/>
<path d="M178.4 138.257L159.9 156.22L143.1 172.713H143L124.6 190.677L103.7 176.6L79.7 160.632L76.5 158.426L52.4 142.248L34.3 130.063L34.2 130.168L10.1 113.99L-46.7 75.8566L-156.6 183.113L-179.8 167.566L-180.8 166.935L-70.8 59.7838L-52.3 41.7152L-28.2 57.8929L28.6 96.0263V95.9212L52.7 112.099L70.9 124.285L95 140.358L122.2 158.636L139 142.248L115.1 126.176L91 109.998L-11.3 41.4L-35.4 25.2222L-53.5 13.1414L-70.4 29.6344L-88.9 47.598L-198.9 154.75L-200.9 153.384L-219.8 140.778L-223 138.572L-113 31.4202L-94.5 13.4566L-77.6 -3.03636L-59.2 -21L-35.1 -4.82223L-16.9 7.25858L7.2 23.4364L109.4 91.9293L133.5 108.107L157.5 124.18L178.4 138.257Z" fill="#27A694"/>
<path d="M161.4 271.257L142.9 289.22L126.1 305.713H126L107.6 323.677L86.7 309.6L62.7 293.632L59.5 291.426L35.4 275.248L17.3 263.063L17.2 263.168L-6.90001 246.99L-63.7 208.857L-173.6 316.113L-196.8 300.566L-197.8 299.935L-87.8 192.784L-69.3 174.715L-45.2 190.893L11.6 229.026V228.921L35.7 245.099L53.9 257.285L78 273.358L105.2 291.636L122 275.248L98.1 259.176L74 242.998L-28.3 174.4L-52.4 158.222L-70.5 146.141L-87.4 162.634L-105.9 180.598L-215.9 287.75L-217.9 286.384L-236.8 273.778L-240 271.572L-130 164.42L-111.5 146.457L-94.6 129.964L-76.2 112L-52.1 128.178L-33.9 140.259L-9.8 156.436L92.4 224.929L116.5 241.107L140.5 257.18L161.4 271.257Z" fill="#27A694"/>
</g>
<defs>
<clipPath id="clip0_1696_1378">
<rect width="1512" height="755" fill="white"/>
</clipPath>
</defs>
</svg>
