<svg width="35" height="35" viewBox="0 0 35 35" fill="none" xmlns="http://www.w3.org/2000/svg">
<g clip-path="url(#clip0_1351_1056)">
<path d="M26.1766 12.1412C26.9649 13.2486 27.5881 14.4808 28.0104 15.8024C27.3763 15.3451 26.6266 14.9225 25.7681 14.5429C25.3132 14.3414 24.8336 14.1552 24.334 13.9841L23.4107 14.9072C23.201 15.1178 22.9341 15.2605 22.6405 15.3186L21.1908 15.6061C21.4076 16.9535 21.5206 18.3784 21.5206 19.841C21.5206 21.5164 21.3726 23.1427 21.0893 24.6598C19.3112 25.0218 17.3558 25.2124 15.3288 25.2124C13.3018 25.2124 11.3468 25.0218 9.56844 24.6598C9.28574 23.1427 9.13769 21.5164 9.13769 19.841C9.13769 18.1657 9.28574 16.5398 9.56844 15.0226C11.3469 14.6609 13.3018 14.4697 15.3288 14.4697C16.635 14.4697 17.9106 14.5497 19.1287 14.7025C19.0405 14.4522 19.0184 14.1797 19.0719 13.9106L19.2809 12.858C18.008 12.7013 16.682 12.6194 15.3286 12.6194C13.4905 12.6194 11.7006 12.7691 10.0289 13.0553C10.3254 12.0184 10.6916 11.0547 11.1243 10.1905C12.2859 7.86566 13.8188 6.53264 15.3286 6.53264C16.8388 6.53264 18.3714 7.86558 19.5336 10.1905C19.694 10.5107 19.8449 10.8448 19.9868 11.1913L21.3926 9.78532C20.9672 8.87069 20.4832 8.0553 19.95 7.36099C20.8592 7.69869 21.7218 8.13404 22.525 8.65279L23.8602 7.31744C21.4281 5.65554 18.4901 4.68237 15.3287 4.68237C6.97074 4.68245 0.17041 11.4829 0.17041 19.841C0.17041 28.1998 6.97074 35 15.329 35C23.6878 35 30.4881 28.1998 30.4881 19.841C30.4881 16.463 29.3768 13.3397 27.5013 10.8168L26.1766 12.1412ZM10.708 7.36107C9.53431 8.89051 8.5967 10.9985 8.00222 13.4848C6.8801 13.7716 5.834 14.1252 4.89014 14.5429C4.0315 14.9225 3.28211 15.345 2.648 15.8024C3.89257 11.9034 6.88907 8.77953 10.708 7.36107ZM5.63863 16.2352C6.24885 15.965 6.90835 15.7244 7.60794 15.5134C7.39916 16.8801 7.28712 18.3312 7.28712 19.8411C7.28712 21.351 7.39916 22.8023 7.60794 24.1694C6.90835 23.9579 6.24885 23.7173 5.63863 23.4475C3.33953 22.4301 2.0206 21.1163 2.0206 19.8411C2.02068 18.5665 3.3396 17.2521 5.63863 16.2352ZM4.89022 25.1398C5.834 25.5571 6.88018 25.9109 8.0023 26.1973C8.59678 28.6839 9.53438 30.792 10.708 32.3213C6.88907 30.9029 3.89264 27.7792 2.64808 23.88C3.28211 24.3375 4.03158 24.7598 4.89022 25.1398ZM15.329 33.1494C13.8192 33.1494 12.2863 31.8166 11.1246 29.4922C10.692 28.6274 10.3257 27.6642 10.0293 26.627C11.701 26.9136 13.4909 27.0631 15.329 27.0631C17.1674 27.0631 18.957 26.9136 20.6291 26.627C20.3326 27.6644 19.9662 28.6276 19.534 29.4922C18.3717 31.8163 16.8391 33.1494 15.329 33.1494ZM19.9504 32.3215C21.1236 30.7923 22.0614 28.6841 22.6561 26.1975C23.7783 25.9112 24.8243 25.5574 25.7681 25.14C26.6266 24.7599 27.3763 24.3378 28.0104 23.8803C26.7655 27.7793 23.7695 30.903 19.9504 32.3215ZM25.0194 23.4475C24.4096 23.7173 23.7499 23.9579 23.0506 24.1694C23.2591 22.8021 23.3709 21.351 23.3709 19.8411C23.3709 18.3313 23.2591 16.8801 23.0506 15.5134C23.7499 15.7244 24.4096 15.965 25.0194 16.2352C27.319 17.2521 28.6375 18.5665 28.6375 19.841C28.6375 21.1162 27.3189 22.4301 25.0194 23.4475Z" fill="#fff"/>
<path d="M34.673 4.67008L30.1595 0.156418C29.9507 -0.0521393 29.6131 -0.0521393 29.405 0.156418L28.3468 1.21435C28.1386 1.42275 28.1386 1.76015 28.3468 1.96886L28.4892 2.11119L26.7633 3.43871L23.7671 3.89914C23.5686 3.92974 23.4043 4.06958 23.3416 4.26058C23.279 4.45158 23.3293 4.66172 23.4714 4.80375L25.6479 6.98011L20.6063 12.0218C20.5316 12.0964 20.4806 12.1915 20.4603 12.2952L20.1026 14.1001C20.0677 14.2748 20.1227 14.4555 20.2486 14.5809C20.3748 14.7069 20.5547 14.7619 20.7296 14.727L22.5349 14.3693C22.6382 14.3487 22.7336 14.2979 22.8081 14.223L27.8495 9.18209L30.0259 11.3585C30.168 11.5006 30.3781 11.5508 30.5694 11.488C30.76 11.4256 30.9 11.2607 30.9307 11.0621L31.3911 8.06607L32.719 6.3399L32.8613 6.48238C33.0696 6.69108 33.4072 6.69108 33.6156 6.48238L34.6734 5.4246C34.8814 5.21604 34.8814 4.87826 34.673 4.67008Z" fill="#D7DE27"/>
</g>
<defs>
<clipPath id="clip0_1351_1056">
<rect width="35" height="35" fill="white"/>
</clipPath>
</defs>
</svg>
