<svg width="1512" height="755" viewBox="0 0 1512 755" fill="none" xmlns="http://www.w3.org/2000/svg">
<g clip-path="url(#clip0_1621_205)">
<rect width="1512" height="755" fill="#EAFBF3"/>
<path d="M1754.4 184.257L1735.9 202.22L1719.1 218.713H1719L1700.6 236.677L1679.7 222.6L1655.7 206.632L1652.5 204.426L1628.4 188.248L1610.3 176.063L1610.2 176.168L1586.1 159.99L1529.3 121.857L1419.4 229.113L1396.2 213.566L1395.2 212.935L1505.2 105.784L1523.7 87.7152L1547.8 103.893L1604.6 142.026V141.921L1628.7 158.099L1646.9 170.285L1671 186.358L1698.2 204.636L1715 188.248L1691.1 172.176L1667 155.998L1564.7 87.4L1540.6 71.2222L1522.5 59.1414L1505.6 75.6344L1487.1 93.598L1377.1 200.75L1375.1 199.384L1356.2 186.778L1353 184.572L1463 77.4202L1481.5 59.4566L1498.4 42.9636L1516.8 25L1540.9 41.1778L1559.1 53.2586L1583.2 69.4364L1685.4 137.929L1709.5 154.107L1733.5 170.18L1754.4 184.257Z" fill="#27A694" fill-opacity="0.25"/>
<path d="M1754.4 333.257L1735.9 351.22L1719.1 367.713H1719L1700.6 385.677L1679.7 371.6L1655.7 355.632L1652.5 353.426L1628.4 337.248L1610.3 325.063L1610.2 325.168L1586.1 308.99L1529.3 270.857L1419.4 378.113L1396.2 362.566L1395.2 361.935L1505.2 254.784L1523.7 236.715L1547.8 252.893L1604.6 291.026V290.921L1628.7 307.099L1646.9 319.285L1671 335.358L1698.2 353.636L1715 337.248L1691.1 321.176L1667 304.998L1564.7 236.4L1540.6 220.222L1522.5 208.141L1505.6 224.634L1487.1 242.598L1377.1 349.75L1375.1 348.384L1356.2 335.778L1353 333.572L1463 226.42L1481.5 208.457L1498.4 191.964L1516.8 174L1540.9 190.178L1559.1 202.259L1583.2 218.436L1685.4 286.929L1709.5 303.107L1733.5 319.18L1754.4 333.257Z" fill="#27A694" fill-opacity="0.25"/>
<path d="M152.012 646.527L133.704 628.478L115.227 610.318L37.0952 533.277L18.7083 515.128L4.89565 501.513L-13.4912 483.364L-33.1672 494.837L-51.1708 505.335L-70.8468 516.808L-286.879 642.697L-306.555 654.17L-331.641 668.791L-351.317 680.264L-332.93 698.413L-319.118 712.028L-300.641 730.188L-222.598 807.219L-204.212 825.368L-185.904 843.417L-169.884 859.198L-150.208 847.725L-125.122 833.104L-105.446 821.631L110.587 695.742L130.263 684.269L148.266 673.771L167.942 662.298L152.012 646.527ZM114.322 668.588L94.6456 680.061L-121.376 805.86L-141.052 817.333L-166.138 831.955L-184.445 813.906L-202.922 795.746L-281.055 718.704L-299.442 700.555L-313.254 686.941L-288.168 672.319L-268.492 660.846L-52.4599 534.957L-32.7839 523.484L-14.7803 512.986L-0.967679 526.601L17.4192 544.75L95.5515 621.791L113.938 639.94L132.246 657.989L114.322 668.588Z" fill="#27A694" fill-opacity="0.25"/>
<path d="M77.5482 632.289L-0.584077 555.248L-18.9709 537.099L-38.6469 548.572L-254.679 674.461L-274.355 685.934L-255.968 704.083L-177.836 781.124L-159.449 799.273L-139.773 787.8L76.2591 661.911L95.9351 650.438L77.5482 632.289ZM-158.07 769.662L-236.213 692.71L-20.2708 566.81L57.8615 643.852L-158.07 769.662Z" fill="#D7DE27" fill-opacity="0.5"/>
<path d="M7.85071 627.045L-8.32841 611.063L-22.7075 596.837L-26.7946 592.814L-46.4706 604.287L-193.563 690.165L-189.476 694.188L-175.097 708.414L-158.918 724.396L-140.441 742.556L-120.765 731.083L6.63017 656.856L26.3062 645.383L7.85071 627.045ZM-139.231 712.834L-155.41 696.852L-28.0152 622.625L-11.836 638.607L-139.231 712.834Z" fill="#27A694" fill-opacity="0.25"/>
</g>
<defs>
<clipPath id="clip0_1621_205">
<rect width="1512" height="755" fill="white"/>
</clipPath>
</defs>
</svg>
