<svg width="1512" height="755" viewBox="0 0 1512 755" fill="none" xmlns="http://www.w3.org/2000/svg">
<g clip-path="url(#clip0_1621_205)">
<rect width="1512" height="755" fill="#EAFBF3"/>
<path d="M152.012 646.527L133.704 628.478L115.227 610.318L37.0952 533.277L18.7083 515.128L4.89565 501.513L-13.4912 483.364L-33.1672 494.837L-51.1708 505.335L-70.8468 516.808L-286.879 642.697L-306.555 654.17L-331.641 668.791L-351.317 680.264L-332.93 698.413L-319.118 712.028L-300.641 730.188L-222.598 807.219L-204.212 825.368L-185.904 843.417L-169.884 859.198L-150.208 847.725L-125.122 833.104L-105.446 821.631L110.587 695.742L130.263 684.269L148.266 673.771L167.942 662.298L152.012 646.527ZM114.322 668.588L94.6456 680.061L-121.376 805.86L-141.052 817.333L-166.138 831.955L-184.445 813.906L-202.922 795.746L-281.055 718.704L-299.442 700.555L-313.254 686.941L-288.168 672.319L-268.492 660.846L-52.4599 534.957L-32.7839 523.484L-14.7803 512.986L-0.967679 526.601L17.4192 544.75L95.5515 621.791L113.938 639.94L132.246 657.989L114.322 668.588Z" fill="#27A694" fill-opacity="0.25"/>
<path d="M77.5482 632.289L-0.584077 555.248L-18.9709 537.099L-38.6469 548.572L-254.679 674.461L-274.355 685.934L-255.968 704.083L-177.836 781.124L-159.449 799.273L-139.773 787.8L76.2591 661.911L95.9351 650.438L77.5482 632.289ZM-158.07 769.662L-236.213 692.71L-20.2708 566.81L57.8615 643.852L-158.07 769.662Z" fill="#D7DE27" fill-opacity="0.5"/>
<path d="M7.85071 627.045L-8.32841 611.063L-22.7075 596.837L-26.7946 592.814L-46.4706 604.287L-193.563 690.165L-189.476 694.188L-175.097 708.414L-158.918 724.396L-140.441 742.556L-120.765 731.083L6.63017 656.856L26.3062 645.383L7.85071 627.045ZM-139.231 712.834L-155.41 696.852L-28.0152 622.625L-11.836 638.607L-139.231 712.834Z" fill="#27A694" fill-opacity="0.25"/>
</g>
<defs>
<clipPath id="clip0_1621_205">
<rect width="1512" height="755" fill="white"/>
</clipPath>
</defs>
</svg>
