<svg width="1512" height="755" viewBox="0 0 1512 755" fill="none" xmlns="http://www.w3.org/2000/svg">
<g clip-path="url(#clip0_1621_205)">
<rect width="1512" height="755" fill="#EAFBF3"/>
<path d="M159.4 163.257L140.9 181.22L124.1 197.713H124L105.6 215.677L84.7 201.6L60.7 185.632L57.5 183.426L33.4 167.248L15.3 155.063L15.2 155.168L-8.90001 138.99L-65.7 100.857L-175.6 208.113L-198.8 192.566L-199.8 191.935L-89.8 84.7838L-71.3 66.7152L-47.2 82.8929L9.59999 121.026V120.921L33.7 137.099L51.9 149.285L76 165.358L103.2 183.636L120 167.248L96.1 151.176L72 134.998L-30.3 66.4L-54.4 50.2222L-72.5 38.1414L-89.4 54.6344L-107.9 72.598L-217.9 179.75L-219.9 178.384L-238.8 165.778L-242 163.572L-132 56.4202L-113.5 38.4566L-96.6 21.9636L-78.2 4L-54.1 20.1778L-35.9 32.2586L-11.8 48.4364L90.4 116.929L114.5 133.107L138.5 149.18L159.4 163.257Z" fill="#27A694" fill-opacity="0.25"/>
<path d="M159.4 357.257L140.9 375.22L124.1 391.713H124L105.6 409.677L84.7 395.6L60.7 379.632L57.5 377.426L33.4 361.248L15.3 349.063L15.2 349.168L-8.90001 332.99L-65.7 294.857L-175.6 402.113L-198.8 386.566L-199.8 385.935L-89.8 278.784L-71.3 260.715L-47.2 276.893L9.59999 315.026V314.921L33.7 331.099L51.9 343.285L76 359.358L103.2 377.636L120 361.248L96.1 345.176L72 328.998L-30.3 260.4L-54.4 244.222L-72.5 232.141L-89.4 248.634L-107.9 266.598L-217.9 373.75L-219.9 372.384L-238.8 359.778L-242 357.572L-132 250.42L-113.5 232.457L-96.6 215.964L-78.2 198L-54.1 214.178L-35.9 226.259L-11.8 242.436L90.4 310.929L114.5 327.107L138.5 343.18L159.4 357.257Z" fill="#27A694" fill-opacity="0.25"/>
<path d="M1831.01 548.527L1812.7 530.478L1794.23 512.318L1716.1 435.277L1697.71 417.128L1683.9 403.513L1665.51 385.364L1645.83 396.837L1627.83 407.335L1608.15 418.808L1392.12 544.697L1372.44 556.17L1347.36 570.791L1327.68 582.264L1346.07 600.413L1359.88 614.028L1378.36 632.188L1456.4 709.219L1474.79 727.368L1493.1 745.417L1509.12 761.198L1528.79 749.725L1553.88 735.104L1573.55 723.631L1789.59 597.742L1809.26 586.269L1827.27 575.771L1846.94 564.298L1831.01 548.527ZM1793.32 570.588L1773.65 582.061L1557.62 707.86L1537.95 719.333L1512.86 733.955L1494.55 715.906L1476.08 697.746L1397.95 620.704L1379.56 602.555L1365.75 588.941L1390.83 574.319L1410.51 562.846L1626.54 436.957L1646.22 425.484L1664.22 414.986L1678.03 428.601L1696.42 446.75L1774.55 523.791L1792.94 541.94L1811.25 559.989L1793.32 570.588Z" fill="#27A694" fill-opacity="0.25"/>
<path d="M1756.55 534.289L1678.42 457.248L1660.03 439.099L1640.35 450.572L1424.32 576.461L1404.64 587.934L1423.03 606.083L1501.16 683.124L1519.55 701.273L1539.23 689.8L1755.26 563.911L1774.94 552.438L1756.55 534.289ZM1520.93 671.662L1442.79 594.71L1658.73 468.81L1736.86 545.852L1520.93 671.662Z" fill="#D7DE27" fill-opacity="0.5"/>
<path d="M1686.85 529.045L1670.67 513.063L1656.29 498.837L1652.21 494.814L1632.53 506.287L1485.44 592.165L1489.52 596.188L1503.9 610.414L1520.08 626.396L1538.56 644.556L1558.24 633.083L1685.63 558.856L1705.31 547.383L1686.85 529.045ZM1539.77 614.834L1523.59 598.852L1650.98 524.625L1667.16 540.607L1539.77 614.834Z" fill="#27A694" fill-opacity="0.25"/>
</g>
<defs>
<clipPath id="clip0_1621_205">
<rect width="1512" height="755" fill="white"/>
</clipPath>
</defs>
</svg>
