<svg width="20" height="20" viewBox="0 0 20 20" fill="none" xmlns="http://www.w3.org/2000/svg">
<g clip-path="url(#clip0_1716_1179)">
<path fill-rule="evenodd" clip-rule="evenodd" d="M13.0893 9.41074C13.2455 9.56701 13.3333 9.77894 13.3333 9.99991C13.3333 10.2209 13.2455 10.4328 13.0893 10.5891L8.37512 15.3032C8.29825 15.3828 8.2063 15.4463 8.10463 15.49C8.00296 15.5337 7.89361 15.5567 7.78296 15.5576C7.67231 15.5586 7.56258 15.5375 7.46016 15.4956C7.35775 15.4537 7.2647 15.3918 7.18646 15.3136C7.10822 15.2353 7.04634 15.1423 7.00444 15.0399C6.96254 14.9375 6.94145 14.8277 6.94241 14.7171C6.94338 14.6064 6.96636 14.4971 7.01004 14.3954C7.05371 14.2937 7.1172 14.2018 7.19679 14.1249L11.3218 9.99991L7.19679 5.87491C7.04499 5.71774 6.961 5.50724 6.96289 5.28874C6.96479 5.07024 7.05243 4.86123 7.20694 4.70672C7.36145 4.55222 7.57046 4.46458 7.78896 4.46268C8.00745 4.46078 8.21795 4.54477 8.37512 4.69657L13.0893 9.41074Z" fill="#018C79"/>
<path d="M13.3335 10C13.3335 9.46957 13.5442 8.96086 13.9193 8.58579C14.2944 8.21071 14.8031 8 15.3335 8C15.8639 8 16.3726 8.21071 16.7477 8.58579C17.1228 8.96086 17.3335 9.46957 17.3335 10C17.3335 10.5304 17.1228 11.0391 16.7477 11.4142C16.3726 11.7893 15.8639 12 15.3335 12C14.8031 12 14.2944 11.7893 13.9193 11.4142C13.5442 11.0391 13.3335 10.5304 13.3335 10ZM15.3335 8.75C15.002 8.75 14.684 8.8817 14.4496 9.11612C14.2152 9.35054 14.0835 9.66848 14.0835 10C14.0835 10.3315 14.2152 10.6495 14.4496 10.8839C14.684 11.1183 15.002 11.25 15.3335 11.25C15.665 11.25 15.983 11.1183 16.2174 10.8839C16.4518 10.6495 16.5835 10.3315 16.5835 10C16.5835 9.66848 16.4518 9.35054 16.2174 9.11612C15.983 8.8817 15.665 8.75 15.3335 8.75Z" fill="#018C79"/>
</g>
<defs>
<clipPath id="clip0_1716_1179">
<rect width="20" height="20" fill="white"/>
</clipPath>
</defs>
</svg>
