<svg width="30" height="30" viewBox="0 0 30 30" fill="none" xmlns="http://www.w3.org/2000/svg">
<path fill-rule="evenodd" clip-rule="evenodd" d="M10.6402 24.9933C11.3927 25.7481 12.3587 26.1628 13.3611 26.1628H13.3626C14.3693 26.1628 15.3398 25.7481 16.0937 24.992C16.4976 24.5904 17.1862 24.5577 17.6322 24.9201C18.0796 25.2824 18.1159 25.9038 17.7135 26.3054C16.5397 27.4788 14.9955 28.125 13.3626 28.125H13.3597C11.7312 28.1237 10.1898 27.4775 9.02036 26.3041C8.61795 25.9025 8.65427 25.2811 9.10172 24.9201C9.54916 24.5564 10.2378 24.5891 10.6402 24.9933ZM13.4335 0C19.8909 0 24.2288 4.52878 24.2288 8.75799C24.2288 10.9334 24.8433 11.8557 25.4955 12.8342C26.1406 13.7996 26.8713 14.8958 26.8713 16.9679C26.3643 22.2619 20.2265 22.6936 13.4335 22.6936C6.64049 22.6936 0.501232 22.2619 1.92289e-05 17.0516C-0.00431958 14.8958 0.726406 13.7996 1.37142 12.8342L1.59913 12.489C2.15978 11.6213 2.63821 10.6775 2.63821 8.75799C2.63821 4.52878 6.97607 0 13.4335 0ZM13.4335 1.96221C8.35617 1.96221 4.81731 5.5439 4.81731 8.75799C4.81731 11.4776 3.97908 12.7347 3.23819 13.844C2.64402 14.7349 2.17478 15.4387 2.17478 16.9679C2.41739 19.435 4.22605 20.7314 13.4335 20.7314C22.5901 20.7314 24.4554 19.3775 24.6965 16.8828C24.6922 15.4387 24.2229 14.7349 23.6288 13.844C22.8879 12.7347 22.0497 11.4776 22.0497 8.75799C22.0497 5.5439 18.5108 1.96221 13.4335 1.96221Z" fill="black"/>
</svg>
