<svg width="35" height="35" viewBox="0 0 35 35" fill="none" xmlns="http://www.w3.org/2000/svg">
<path d="M29.8309 5.16896H29.8287L33.495 5.90177C33.6919 5.94114 33.8537 6.08552 33.9106 6.28021C33.9393 6.37478 33.9419 6.47537 33.918 6.57128C33.8941 6.66719 33.8447 6.75483 33.775 6.82489L30.7716 9.83052C30.4122 10.1892 29.9252 10.3906 29.4175 10.3905H26.9281L20.6719 16.649C20.7912 17.0996 20.8132 17.5706 20.7363 18.0304C20.6593 18.4902 20.4853 18.9284 20.2258 19.3156C19.9663 19.7029 19.6272 20.0305 19.2311 20.2764C18.8351 20.5224 18.3912 20.6812 17.9289 20.7421C17.4667 20.8031 16.9968 20.7648 16.5506 20.6299C16.1043 20.495 15.6919 20.2666 15.3409 19.9598C14.9898 19.653 14.7081 19.275 14.5147 18.8508C14.3212 18.4266 14.2203 17.9661 14.2188 17.4999C14.2191 16.9965 14.3351 16.5 14.558 16.0486C14.7808 15.5973 15.1044 15.2032 15.5038 14.8968C15.9032 14.5904 16.3677 14.38 16.8613 14.2818C17.355 14.1835 17.8647 14.2001 18.3509 14.3302L24.6094 8.06958V5.58239C24.6094 5.07489 24.8106 4.58708 25.1694 4.22833L28.175 1.22271C28.2451 1.15299 28.3327 1.10356 28.4286 1.07968C28.5245 1.0558 28.6251 1.05836 28.7197 1.08708C28.9144 1.14396 29.0588 1.30583 29.0981 1.50271L29.8309 5.16896Z" fill="#D7DE27"/>
<path d="M4.37477 17.5C4.37702 19.3768 4.78174 21.2313 5.56164 22.9383C6.34154 24.6454 7.47847 26.1654 8.89574 27.3957C10.313 28.626 11.9777 29.5381 13.7774 30.0704C15.5771 30.6026 17.4701 30.7427 19.3285 30.4812C21.187 30.2197 22.9678 29.5627 24.5508 28.5544C26.1337 27.5462 27.4821 26.2102 28.5048 24.6365C29.5275 23.0629 30.2009 21.2882 30.4794 19.4322C30.758 17.5762 30.6352 15.682 30.1195 13.8775C30.047 13.6667 30.0183 13.4433 30.035 13.221C30.0516 12.9987 30.1134 12.7822 30.2164 12.5845C30.3194 12.3868 30.4616 12.2122 30.6343 12.0712C30.807 11.9303 31.0066 11.8259 31.2209 11.7645C31.4352 11.7032 31.6597 11.686 31.8808 11.7142C32.1019 11.7424 32.315 11.8153 32.5071 11.9284C32.6991 12.0416 32.8662 12.1926 32.998 12.3724C33.1298 12.5522 33.2237 12.7569 33.2738 12.9741C34.2725 16.4686 34.0828 20.1959 32.7345 23.571C31.3862 26.9462 28.9557 29.7782 25.8241 31.6229C22.6926 33.4676 19.0372 34.2206 15.4316 33.7636C11.826 33.3067 8.47402 31.6657 5.90165 29.0981C3.33208 26.5264 1.68934 23.1741 1.23134 19.5676C0.773343 15.9612 1.52602 12.3047 3.3712 9.17234C5.21638 6.03996 8.04957 3.60906 11.426 2.2613C14.8023 0.91353 18.5307 0.725219 22.0257 1.72593C22.4419 1.84758 22.7929 2.12901 23.0022 2.50873C23.2115 2.88844 23.262 3.33556 23.1426 3.75238C23.0232 4.16919 22.7437 4.5218 22.3651 4.73315C21.9866 4.9445 21.5397 4.9974 21.1223 4.8803C19.1679 4.31957 17.11 4.22047 15.1108 4.59082C13.1117 4.96117 11.2258 5.79084 9.602 7.01442C7.97819 8.23801 6.6608 9.82206 5.75368 11.6417C4.84657 13.4613 4.37453 15.4668 4.37477 17.5Z" fill="#018C79"/>
<path d="M10.9376 17.4999C10.9377 18.6956 11.2643 19.8685 11.8821 20.8922C12.4998 21.9159 13.3854 22.7515 14.4432 23.3089C15.501 23.8663 16.6909 24.1243 17.8846 24.0551C19.0782 23.9859 20.2303 23.5921 21.2166 22.9162C22.2027 22.2386 22.9848 21.3043 23.4784 20.2143C23.9719 19.1243 24.158 17.9202 24.0166 16.7321C23.9784 16.4438 24.0177 16.1505 24.1305 15.8824C24.2433 15.6144 24.4255 15.3812 24.6583 15.2069C24.8912 15.0327 25.1663 14.9237 25.4553 14.8911C25.7443 14.8585 26.0367 14.9035 26.3026 15.0215C26.5683 15.138 26.7984 15.3228 26.9695 15.5572C27.1405 15.7917 27.2462 16.0672 27.276 16.3559C27.5137 18.3861 27.1135 20.4399 26.1309 22.2324C25.1483 24.0248 23.6321 25.4669 21.7927 26.3585C19.9533 27.2501 17.882 27.5469 15.8662 27.2079C13.8504 26.8688 11.9902 25.9107 10.5437 24.4664C9.09725 23.0221 8.13626 21.1633 7.79414 19.1481C7.45202 17.1328 7.74574 15.061 8.63454 13.2203C9.52333 11.3796 10.9631 9.86116 12.7541 8.87585C14.545 7.89054 16.5982 7.48719 18.6288 7.7218C18.8462 7.74197 19.0575 7.80535 19.2501 7.90821C19.4427 8.01107 19.6128 8.15134 19.7505 8.32081C19.8882 8.49028 19.9907 8.68554 20.052 8.89513C20.1132 9.10472 20.132 9.32443 20.1073 9.54138C20.0825 9.75834 20.0147 9.96817 19.9078 10.1586C19.8009 10.349 19.6571 10.5161 19.4848 10.6502C19.3124 10.7843 19.1151 10.8827 18.9042 10.9395C18.6934 10.9963 18.4733 11.0105 18.2569 10.9812C17.3374 10.8744 16.4058 10.9634 15.5231 11.2422C14.6404 11.5211 13.8267 11.9836 13.1355 12.5992C12.4442 13.2149 11.891 13.9698 11.5122 14.8144C11.1334 15.659 10.9376 16.5742 10.9376 17.4999Z" fill="#018C79"/>
</svg>
