<svg width="20" height="20" viewBox="0 0 20 20" fill="none" xmlns="http://www.w3.org/2000/svg">
<g clip-path="url(#clip0_1712_1175)">
<path d="M18.8889 7.80553H9.16667C9.5 7.52775 9.61111 7.27775 9.97222 6.91664C11.8889 4.91664 11.3611 3.94442 10.9722 3.49997C10.5833 3.05553 9.88889 3.16664 9.44444 3.61109C7.27778 6.11109 3.75 7.27775 3.38889 7.61109C3.02778 7.83331 2.75 8.24997 2.55556 8.66664H0.805556C0.361111 8.66664 0 9.02775 0 9.4722V14.6389C0 15.0833 0.361111 15.4444 0.805556 15.4444H3.05556C3.69444 16.2222 4.69444 16.7222 5.77778 16.7222H13.1389C13.75 16.7222 14.2778 16.2222 14.2778 15.5833C14.2778 15.3055 14.1667 15.0278 14 14.8333C14 14.8333 14 14.8055 13.9722 14.7778C13.75 14.5555 13.75 14.3333 13.9722 14.1111C14.1667 13.9166 14.2778 13.6389 14.2778 13.3333C14.2778 13.0278 14.1667 12.7778 14 12.5833C14 12.5833 14 12.5555 13.9722 12.5278C13.75 12.3055 13.75 12.0833 13.9444 11.8611C14.1389 11.6666 14.2778 11.3611 14.2778 11.0555C14.2778 10.75 14.1667 10.5 14 10.3055C14 10.3055 14 10.2778 13.9722 10.2778C13.8889 10.1944 13.8333 10.1111 13.8056 10.0278H18.8889C19.5 10.0278 20.0278 9.52775 20.0278 8.88886C20 8.30553 19.5 7.80553 18.8889 7.80553Z" fill="#018C79"/>
<path d="M2.24957 13.2221V9.77767C2.24957 9.49989 2.36068 9.08322 2.52734 8.69434H2.13845C1.80512 8.69434 1.52734 8.97211 1.52734 9.30545V14.861C1.52734 15.1943 1.80512 15.4721 2.13845 15.4721H3.05512C2.55512 14.861 2.24957 14.0832 2.24957 13.2221Z" fill="#EAFBF3"/>
</g>
<defs>
<clipPath id="clip0_1712_1175">
<rect width="20" height="20" fill="white"/>
</clipPath>
</defs>
</svg>
