<svg width="30" height="30" viewBox="0 0 30 30" fill="none" xmlns="http://www.w3.org/2000/svg">
<path fill-rule="evenodd" clip-rule="evenodd" d="M26.8189 6.77003C26.9376 6.95029 26.9905 7.16601 26.9687 7.38076C26.9468 7.59552 26.8515 7.79615 26.6989 7.94878L15.2076 19.4388C15.0901 19.5563 14.9434 19.6404 14.7826 19.6825L9.99636 20.9325C9.83815 20.9738 9.6719 20.973 9.5141 20.9301C9.35631 20.8873 9.21247 20.8039 9.09685 20.6883C8.98124 20.5727 8.89787 20.4288 8.85502 20.271C8.81218 20.1132 8.81135 19.947 8.85261 19.7888L10.1026 15.0038C10.1391 14.8601 10.2079 14.7267 10.3039 14.6138L21.8376 3.08753C22.0134 2.91197 22.2517 2.81335 22.5001 2.81335C22.7486 2.81335 22.9868 2.91197 23.1626 3.08753L26.6989 6.62253C26.7437 6.66754 26.7839 6.71695 26.8189 6.77003ZM24.7101 7.28503L22.5001 5.07628L11.8526 15.7238L11.0714 18.715L14.0626 17.9338L24.7101 7.28503Z" fill="#80C1B9"/>
<path d="M24.551 21.45C24.8926 18.5299 25.0017 15.5873 24.8772 12.65C24.8745 12.5808 24.8861 12.5118 24.9112 12.4472C24.9364 12.3827 24.9746 12.3241 25.0235 12.275L26.2535 11.045C26.2871 11.0112 26.3297 10.9878 26.3763 10.9777C26.4229 10.9675 26.4714 10.971 26.516 10.9878C26.5606 11.0046 26.5995 11.0339 26.6278 11.0722C26.6562 11.1105 26.6729 11.1562 26.676 11.2037C26.9075 14.6928 26.8196 18.1957 26.4135 21.6687C26.1185 24.1962 24.0885 26.1775 21.5722 26.4587C17.2039 26.9425 12.7955 26.9425 8.4272 26.4587C5.9122 26.1775 3.88095 24.1962 3.58595 21.6687C3.0677 17.238 3.0677 12.762 3.58595 8.33123C3.88095 5.80373 5.91095 3.82248 8.4272 3.54123C11.7427 3.17358 15.0831 3.08452 18.4135 3.27498C18.4611 3.2784 18.5068 3.29541 18.5451 3.32399C18.5834 3.35258 18.6127 3.39154 18.6295 3.43626C18.6464 3.48098 18.65 3.52958 18.6401 3.57632C18.6301 3.62306 18.607 3.66598 18.5735 3.69998L17.3322 4.93998C17.2836 4.98842 17.2256 5.02638 17.1617 5.05153C17.0979 5.07669 17.0295 5.0885 16.961 5.08623C14.1819 4.99176 11.3996 5.09829 8.63595 5.40498C7.82838 5.49437 7.07452 5.85338 6.49615 6.42404C5.91778 6.9947 5.54867 7.74368 5.44845 8.54998C4.94726 12.8354 4.94726 17.1646 5.44845 21.45C5.54867 22.2563 5.91778 23.0053 6.49615 23.5759C7.07452 24.1466 7.82838 24.5056 8.63595 24.595C12.8297 25.0637 17.1697 25.0637 21.3647 24.595C22.1723 24.5056 22.9261 24.1466 23.5045 23.5759C24.0829 23.0053 24.4507 22.2563 24.551 21.45Z" fill="#80C1B9"/>
</svg>
