<svg width="24" height="24" viewBox="0 0 24 24" fill="none" xmlns="http://www.w3.org/2000/svg">
<path d="M23.8039 9.5915C23.694 9.45107 23.5774 9.31418 23.4456 9.18569L20.587 6.3979C14.8866 8.86134 3.55066 9.37147 1.03442 9.45387C1.04418 9.44248 0.230211 10.9226 0.238152 10.8961C3.42886 11.0493 19.0049 11.6555 23.8039 9.5915ZM3.31701 7.26813C6.35615 7.17753 13.143 6.6421 18.075 3.79833L15.3076 1.17067C13.6908 -0.458649 11.016 -0.353487 9.39922 1.27592L3.3171 7.26804M9.39798 22.7427C10.9965 24.3016 13.6197 24.5181 15.4195 22.783L18.2766 19.9967C13.516 17.275 6.66434 16.9807 3.54454 17.033L9.39798 22.7427ZM0 12.7794L1.05939 14.7685C4.24177 14.8704 13.964 15.3443 20.7373 17.4726L23.4456 14.8313C23.6549 14.6264 23.8408 14.3999 24 14.1558C19.4006 11.9669 3.36667 12.6311 0.325988 12.7793" fill="#4A4754"/>
</svg>
