<svg width="1512" height="755" viewBox="0 0 1512 755" fill="none" xmlns="http://www.w3.org/2000/svg">
<g clip-path="url(#clip0_1726_1378)">
<rect width="1512" height="755" fill="white"/>
<path d="M1753.4 143.257L1734.9 161.22L1718.1 177.713H1718L1699.6 195.677L1678.7 181.6L1654.7 165.632L1651.5 163.426L1627.4 147.248L1609.3 135.063L1609.2 135.168L1585.1 118.99L1528.3 80.8566L1418.4 188.113L1395.2 172.566L1394.2 171.935L1504.2 64.7838L1522.7 46.7152L1546.8 62.8929L1603.6 101.026V100.921L1627.7 117.099L1645.9 129.285L1670 145.358L1697.2 163.636L1714 147.248L1690.1 131.176L1666 114.998L1563.7 46.4L1539.6 30.2222L1521.5 18.1414L1504.6 34.6344L1486.1 52.598L1376.1 159.75L1374.1 158.384L1355.2 145.778L1352 143.572L1462 36.4202L1480.5 18.4566L1497.4 1.96364L1515.8 -16L1539.9 0.177771L1558.1 12.2586L1582.2 28.4364L1684.4 96.9293L1708.5 113.107L1732.5 129.18L1753.4 143.257Z" fill="#EAFBF3"/>
<path d="M1753.4 337.257L1734.9 355.22L1718.1 371.713H1718L1699.6 389.677L1678.7 375.6L1654.7 359.632L1651.5 357.426L1627.4 341.248L1609.3 329.063L1609.2 329.168L1585.1 312.99L1528.3 274.857L1418.4 382.113L1395.2 366.566L1394.2 365.935L1504.2 258.784L1522.7 240.715L1546.8 256.893L1603.6 295.026V294.921L1627.7 311.099L1645.9 323.285L1670 339.358L1697.2 357.636L1714 341.248L1690.1 325.176L1666 308.998L1563.7 240.4L1539.6 224.222L1521.5 212.141L1504.6 228.634L1486.1 246.598L1376.1 353.75L1374.1 352.384L1355.2 339.778L1352 337.572L1462 230.42L1480.5 212.457L1497.4 195.964L1515.8 178L1539.9 194.178L1558.1 206.259L1582.2 222.436L1684.4 290.929L1708.5 307.107L1732.5 323.18L1753.4 337.257Z" fill="#EAFBF3"/>
<path d="M-305.335 767.283L-285.115 783.16L-264.714 799.128L-178.419 866.901L-158.109 882.869L-142.854 894.845L-122.544 910.812L-104.282 897.201L-87.5721 884.746L-69.3101 871.135L131.206 721.765L149.468 708.154L172.752 690.806L191.014 677.194L170.704 661.226L155.449 649.251L135.048 633.282L48.8435 565.51L28.5335 549.542L8.31362 533.665L-9.37885 519.784L-27.6409 533.395L-50.9249 550.743L-69.1869 564.355L-269.703 713.724L-287.965 727.336L-304.675 739.79L-322.937 753.402L-305.335 767.283ZM-270.363 741.126L-252.101 727.515L-51.5852 578.235L-33.3232 564.624L-10.0392 547.276L10.1807 563.153L30.5815 579.121L116.877 646.894L137.187 662.862L152.442 674.838L129.158 692.186L110.896 705.797L-89.6201 855.167L-107.882 868.778L-124.592 881.233L-139.847 869.257L-160.157 853.29L-246.452 785.517L-266.762 769.549L-286.982 753.672L-270.363 741.126Z" fill="#27A694" fill-opacity="0.25"/>
<path d="M-229.742 773.062L-143.447 840.835L-123.137 856.802L-104.875 843.191L95.6411 693.821L113.903 680.21L93.5931 664.242L7.29766 596.469L-13.0123 580.502L-31.2743 594.113L-231.79 743.483L-250.052 757.094L-229.742 773.062ZM-11.0551 610.08L75.241 677.763L-125.184 827.133L-211.48 759.361L-11.0551 610.08Z" fill="#D7DE27" fill-opacity="0.5"/>
<path d="M-159.898 770.441L-142.026 784.503L-126.139 797.023L-121.626 800.561L-103.364 786.95L33.1458 685.085L28.6324 681.547L12.7457 669.027L-5.12699 654.965L-25.5278 638.996L-43.7898 652.608L-162.036 740.681L-180.298 754.293L-159.898 770.441ZM-23.3897 668.666L-5.51696 682.728L-123.763 770.802L-141.636 756.739L-23.3897 668.666Z" fill="#27A694" fill-opacity="0.25"/>
</g>
<defs>
<clipPath id="clip0_1726_1378">
<rect width="1512" height="755" fill="white"/>
</clipPath>
</defs>
</svg>
