<svg width="1512" height="755" viewBox="0 0 1512 755" fill="none" xmlns="http://www.w3.org/2000/svg">
<g clip-path="url(#clip0_1694_1388)">
<rect width="1512" height="755" fill="white"/>
<path d="M159.4 163.257L140.9 181.22L124.1 197.713H124L105.6 215.677L84.7 201.6L60.7 185.632L57.5 183.426L33.4 167.248L15.3 155.063L15.2 155.168L-8.90001 138.99L-65.7 100.857L-175.6 208.113L-198.8 192.566L-199.8 191.935L-89.8 84.7838L-71.3 66.7152L-47.2 82.8929L9.59999 121.026V120.921L33.7 137.099L51.9 149.285L76 165.358L103.2 183.636L120 167.248L96.1 151.176L72 134.998L-30.3 66.4L-54.4 50.2222L-72.5 38.1414L-89.4 54.6344L-107.9 72.598L-217.9 179.75L-219.9 178.384L-238.8 165.778L-242 163.572L-132 56.4202L-113.5 38.4566L-96.6 21.9636L-78.2 4L-54.1 20.1778L-35.9 32.2586L-11.8 48.4364L90.4 116.929L114.5 133.107L138.5 149.18L159.4 163.257Z" fill="#EAFBF3"/>
<path d="M159.4 357.257L140.9 375.22L124.1 391.713H124L105.6 409.677L84.7 395.6L60.7 379.632L57.5 377.426L33.4 361.248L15.3 349.063L15.2 349.168L-8.90001 332.99L-65.7 294.857L-175.6 402.113L-198.8 386.566L-199.8 385.935L-89.8 278.784L-71.3 260.715L-47.2 276.893L9.59999 315.026V314.921L33.7 331.099L51.9 343.285L76 359.358L103.2 377.636L120 361.248L96.1 345.176L72 328.998L-30.3 260.4L-54.4 244.222L-72.5 232.141L-89.4 248.634L-107.9 266.598L-217.9 373.75L-219.9 372.384L-238.8 359.778L-242 357.572L-132 250.42L-113.5 232.457L-96.6 215.964L-78.2 198L-54.1 214.178L-35.9 226.259L-11.8 242.436L90.4 310.929L114.5 327.107L138.5 343.18L159.4 357.257Z" fill="#EAFBF3"/>
<path d="M1369.17 610.435L1387.93 628.01L1406.87 645.692L1486.94 720.713L1505.79 738.386L1519.94 751.643L1538.79 769.317L1558.16 757.345L1575.89 746.39L1595.27 734.419L1808.01 603.053L1827.39 591.081L1852.1 575.823L1871.47 563.852L1852.63 546.178L1838.47 532.921L1819.54 515.239L1739.55 440.227L1720.71 422.553L1701.95 404.978L1685.53 389.611L1666.15 401.583L1641.45 416.84L1622.07 428.812L1409.32 560.178L1389.95 572.15L1372.22 583.104L1352.84 595.076L1369.17 610.435ZM1406.28 587.419L1425.66 575.447L1638.4 444.17L1657.77 432.199L1682.48 416.941L1701.24 434.517L1720.18 452.199L1800.25 527.219L1819.1 544.893L1833.25 558.15L1808.55 573.407L1789.17 585.379L1576.42 716.745L1557.05 728.717L1539.32 739.672L1525.16 726.414L1506.32 708.741L1426.24 633.72L1407.4 616.047L1388.64 598.471L1406.28 587.419Z" fill="#27A694" fill-opacity="0.25"/>
<path d="M1443.97 622.766L1524.05 697.786L1542.89 715.46L1562.27 703.488L1775.01 572.122L1794.39 560.15L1775.55 542.477L1695.47 467.456L1676.63 449.783L1657.25 461.755L1444.51 593.121L1425.13 605.092L1443.97 622.766ZM1676.01 479.419L1756.09 554.351L1543.43 685.725L1463.36 610.705L1676.01 479.419Z" fill="#D7DE27" fill-opacity="0.5"/>
<path d="M1513.78 626.229L1530.36 641.792L1545.1 655.646L1549.29 659.564L1568.67 647.592L1713.52 557.984L1709.33 554.067L1694.59 540.213L1678.01 524.649L1659.07 506.967L1639.7 518.939L1514.24 596.396L1494.86 608.368L1513.78 626.229ZM1658.62 536.711L1675.21 552.274L1549.75 629.731L1533.17 614.167L1658.62 536.711Z" fill="#27A694" fill-opacity="0.25"/>
</g>
<defs>
<clipPath id="clip0_1694_1388">
<rect width="1512" height="755" fill="white"/>
</clipPath>
</defs>
</svg>
